<?xml version="1.0" encoding="UTF-8"?>
<svg xmlns="http://www.w3.org/2000/svg" width="193" height="47" viewBox="0 0 193 47" fill="none">
  <path d="M7.37234 0.0851019H0.670213L5.22766 47H13.9404L18.4979 0.0851019H11.7957L9.58404 33.5287L7.37234 0.0851019ZM21.1876 0.0851019V47H27.8898V0.0851019H21.1876ZM31.9215 0.0851019V47H44.9907V40.2979H38.6236V0.0851019H31.9215ZM47.6951 0.0851019V47H60.7642V40.2979H54.3972V0.0851019H47.6951ZM73.0527 40.2979L73.5218 47H80.2239L75.5325 0.0851019H66.8197L62.1282 47H68.8303L69.2995 40.2979H73.0527ZM72.5835 33.5957H69.7686L71.1761 12.9532L72.5835 33.5957ZM104.333 0.0851019H94.9503V47H101.652V20.6606L105.339 40.2979H111.371L114.386 20.6606V47H121.089V0.0851019H112.376L108.019 24.4138L104.333 0.0851019ZM125.123 0.0851019V47H131.825V0.0851019H125.123ZM145.441 40.2979L145.91 47H152.612L147.921 0.0851019H139.208L134.516 47H141.219L141.688 40.2979H145.441ZM144.972 33.5957H142.157L143.564 12.9532L144.972 33.5957ZM164.679 0.0851019H155.296V47H161.998V20.6606L165.684 40.2979H171.716L174.732 20.6606V47H181.434V0.0851019H172.721L168.365 24.4138L164.679 0.0851019ZM185.468 0.0851019V47H192.17V0.0851019H185.468Z" fill="#CF3036"></path>
</svg>
